<?xml version="1.0" encoding="utf-8"?>
<!-- Generator: Adobe Illustrator 18.1.1, SVG Export Plug-In . SVG Version: 6.00 Build 0)  -->
<svg version="1.1" id="Layer_1" xmlns="http://www.w3.org/2000/svg" xmlns:xlink="http://www.w3.org/1999/xlink" x="0px" y="0px"
	 viewBox="0 0 280 310" style="enable-background:new 0 0 280 310;" xml:space="preserve">
<style type="text/css">
	.st0{fill:#87724F;}
</style>
<g id="Your_Icon">
	<path class="st0" d="M259.9,213c-2.1,0-4,0.7-5.7,1.7L218.8,155l35.5-59.7c1.7,1,3.5,1.7,5.7,1.7c6.2,0,11.3-5.1,11.3-11.3
		c0-6.2-5.1-11.3-11.3-11.3c-6.2,0-11.3,5-11.3,11.3c0,0.1,0,0.1,0,0.1l-69.3,0.9l-34-60.5c3.4-1.9,5.8-5.5,5.8-9.7
		c0-6.2-5-11.3-11.3-11.3c-6.2,0-11.3,5-11.3,11.3c0,4.2,2.4,7.7,5.8,9.7l-34,60.6l-69.3-0.9c0-0.1,0-0.1,0-0.1
		c0-6.2-5.1-11.3-11.3-11.3c-6.2,0-11.3,5-11.3,11.3c0,6.2,5,11.3,11.3,11.3c2.1,0,4-0.7,5.7-1.7L61.2,155l-35.5,59.7
		c-1.7-1-3.6-1.7-5.7-1.7c-6.2,0-11.3,5-11.3,11.3c0,6.2,5,11.3,11.3,11.3c6.2,0,11.3-5.1,11.3-11.3c0,0,0-0.1,0-0.1l69.3-0.9
		l34,60.6c-3.4,1.9-5.8,5.5-5.8,9.7c0,6.2,5.1,11.3,11.3,11.3c6.2,0,11.3-5.1,11.3-11.3c0-4.2-2.4-7.7-5.8-9.7l34-60.6l69.3,0.9
		c0,0,0,0.1,0,0.1c0,6.2,5,11.3,11.3,11.3c6.2,0,11.3-5.1,11.3-11.3C271.2,218,266.1,213,259.9,213z"/>
</g>
<g>
</g>
<g>
</g>
<g>
</g>
<g>
</g>
<g>
</g>
<g>
</g>
</svg>
